<svg xmlns="http://www.w3.org/2000/svg" xml:space="preserve" id="Layer_1" x="0" y="0" style="enable-background:new 0 0 643.79 154.15" version="1.1" viewBox="0 0 643.79 154.15"><style>.st0{fill:#3a3530}</style><path d="M319.36 24V8.05h2.69V24h-2.69zm13.53-15.95c4.79 0 8.25 3.35 8.25 7.98 0 4.6-3.49 7.98-8.32 7.98h-6.47V8.05h6.54zm-3.85 13.54h3.92c3.1 0 5.47-2.3 5.47-5.54 0-3.26-2.44-5.58-5.58-5.58h-3.81v11.12zm17.77-11.12v4.31h7.79v2.42h-7.79v4.4h8.98V24h-11.67V8.05h11.39v2.42h-8.7zm14.63 9.93-1.53 3.6h-2.8l7.04-15.95h2.76L373.88 24h-2.87l-1.53-3.6h-8.04zm4.01-9.48-3.01 7.09h6.02l-3.01-7.09zm21.35-1.34-1.12 2.37c-1.73-1.05-3.46-1.48-4.67-1.48-1.57 0-2.6.59-2.6 1.66 0 3.49 8.61 1.62 8.59 7.36 0 2.85-2.51 4.6-6.02 4.6-2.51 0-4.88-1.03-6.52-2.53l1.16-2.32c1.64 1.5 3.69 2.32 5.4 2.32 1.87 0 2.99-.71 2.99-1.94 0-3.55-8.61-1.57-8.61-7.25 0-2.73 2.35-4.44 5.81-4.44 2.08.01 4.11.67 5.59 1.65zm-61.61 28.69v13.54h-2.69V38.27h-5.04v-2.42h12.78v2.42h-5.05zm18.62 13.54V45.2h-8.45v6.61h-2.69V35.86h2.69v6.93h8.45v-6.93h2.69v15.95h-2.69zm9.24-3.6-1.53 3.6h-2.8l7.04-15.95h2.76l6.97 15.95h-2.87l-1.53-3.6h-8.04zm4.02-9.48-3.01 7.09h6.02l-3.01-7.09zm14.92-.46v13.54h-2.69V38.27h-5.04v-2.42h12.78v2.42h-5.05zm24.28-.89-1.12 2.37c-1.73-1.05-3.46-1.48-4.67-1.48-1.57 0-2.6.59-2.6 1.66 0 3.49 8.61 1.62 8.59 7.36 0 2.85-2.51 4.6-6.02 4.6-2.51 0-4.88-1.03-6.52-2.53l1.16-2.32c1.64 1.5 3.69 2.32 5.4 2.32 1.87 0 2.99-.71 2.99-1.94 0-3.55-8.61-1.57-8.61-7.25 0-2.73 2.35-4.44 5.81-4.44 2.08.01 4.11.67 5.59 1.65zm6.15.89v4.31h7.79V45h-7.79v4.4h8.98v2.42h-11.67V35.86h11.39v2.42h-8.7zm19.57 8.71a8.3 8.3 0 0 1-.72.02h-3.78v4.81h-2.69V35.86h6.47c4.08 0 6.43 1.98 6.43 5.45 0 2.55-1.19 4.35-3.3 5.17l3.58 5.33h-3.05l-2.94-4.83zm-.72-2.4c2.46 0 3.87-1.05 3.87-3.21 0-2.1-1.41-3.1-3.87-3.1h-3.78v6.31h3.78zm14.26 7.23-6.36-15.95h2.89l4.92 12.97 4.97-12.97h2.8l-6.45 15.95h-2.77zm14.19-13.54v4.31h7.79V45h-7.79v4.4h8.98v2.42h-11.67V35.86h11.39v2.42h-8.7zM326.88 74.69c0 3.21-1.89 5.04-4.97 5.04-1.91 0-3.51-.84-4.69-2.3l1.28-2.05c1.05 1.14 2.3 1.75 3.4 1.75 1.44 0 2.28-.89 2.28-2.53v-8.52h-5.51v-2.42h8.23v11.03zm17.52-1.68c0 4.17-2.62 6.72-6.93 6.72s-6.95-2.55-6.95-6.72v-9.34h2.69v9.34c0 2.69 1.66 4.31 4.28 4.31 2.6 0 4.22-1.6 4.22-4.31v-9.34h2.69v9.34zm14.78-7.82-1.12 2.37c-1.73-1.05-3.46-1.48-4.67-1.48-1.57 0-2.6.59-2.6 1.66 0 3.49 8.61 1.62 8.59 7.36 0 2.85-2.51 4.6-6.02 4.6-2.51 0-4.88-1.03-6.52-2.53l1.16-2.32c1.64 1.5 3.69 2.32 5.4 2.32 1.87 0 2.99-.71 2.99-1.94 0-3.55-8.61-1.57-8.61-7.25 0-2.73 2.35-4.44 5.81-4.44 2.09.01 4.11.67 5.59 1.65zm9.3.89v13.54h-2.69V66.08h-5.04v-2.42h12.78v2.42h-5.05zm7.47 13.53V63.66h2.69v15.95h-2.69zm20.12-13.55-1.57 1.96c-1.16-1.25-2.83-2.03-4.44-2.03-3.19 0-5.7 2.46-5.7 5.61 0 3.15 2.51 5.63 5.7 5.63 1.6 0 3.24-.73 4.44-1.89l1.6 1.78c-1.62 1.6-3.92 2.62-6.18 2.62-4.67 0-8.29-3.53-8.29-8.11 0-4.53 3.67-8.02 8.39-8.02 2.24-.02 4.5.92 6.05 2.45zm5.56.02v4.31h7.79v2.42h-7.79v4.4h8.98v2.42h-11.67V63.66h11.39v2.42h-8.7zM80.58 43.9c-6.49-7.6-15.61-11.4-27.36-11.4-11.19 0-20.79 3.98-28.78 11.95-8 7.97-12 17.73-12 29.29 0 11.56 4 21.32 12 29.29 8 7.97 17.59 11.95 28.78 11.95 11.75 0 20.87-3.8 27.36-11.4v9.22h21.65V34.7H80.58v9.2zm-6.63 45.69c-4.42 4.12-9.99 6.17-16.7 6.17S45 93.71 40.63 89.59c-4.36-4.11-6.55-9.4-6.55-15.85 0-6.46 2.18-11.74 6.55-15.85 4.36-4.11 9.9-6.17 16.62-6.17s12.28 2.06 16.7 6.17c4.42 4.11 6.63 9.4 6.63 15.85 0 6.45-2.21 11.74-6.63 15.85zm108.84-45.22c-6.38-7.91-15.33-11.87-26.85-11.87-11.75 0-21.65 3.9-29.71 11.72s-12.08 17.24-12.08 28.27c0 11.14 4 20.59 12 28.35 8 7.76 17.93 11.64 29.79 11.64 11.52 0 20.48-3.96 26.85-11.87v8.44c0 6.14-1.96 10.88-5.87 14.21-3.92 3.33-9.29 5-16.11 5-10.41 0-17.74-3.65-21.99-10.93l-18.46 9.84c3.69 6.25 8.98 10.99 15.86 14.22 6.88 3.23 14.85 4.84 23.92 4.84 12.08 0 22.41-3.18 30.97-9.53 8.56-6.35 12.84-15.57 12.84-27.65V34.69H182.8v9.68zm-6.63 43.5c-4.42 4.01-10.04 6.01-16.87 6.01-6.83 0-12.45-2-16.87-6.01-4.42-4.01-6.63-9.14-6.63-15.39 0-6.14 2.21-11.22 6.63-15.23s10.04-6.01 16.87-6.01c6.82 0 12.45 2.01 16.87 6.01 4.42 4.01 6.63 9.09 6.63 15.23 0 6.25-2.21 11.39-6.63 15.39z" class="st0"/><path d="M562.87 32.5c-11.08 0-19.41 3.75-25.01 11.25-4.92-7.5-12.53-11.25-22.83-11.25-10.52 0-18.29 3.49-23.33 10.47v-8.28h-21.65v56.45h-164.4V34.69H284v9.22c-6.49-7.6-15.61-11.4-27.36-11.4-11.19 0-20.79 3.98-28.78 11.95-8 7.97-12 17.73-12 29.29 0 11.56 4 21.32 12 29.29 8 7.97 17.59 11.95 28.78 11.95 11.75 0 20.87-3.8 27.36-11.4v9.22h207.71V68.89c0-5.72 1.43-10.1 4.28-13.12 2.85-3.02 6.68-4.53 11.5-4.53 4.47 0 7.94 1.3 10.41 3.9 2.46 2.61 3.69 6.25 3.69 10.94v46.7h21.65V68.89c0-5.72 1.37-10.1 4.11-13.12 2.74-3.02 6.57-4.53 11.5-4.53 4.47 0 7.94 1.3 10.4 3.9 2.46 2.61 3.69 6.25 3.69 10.94v46.7h21.65v-48.1c0-9.79-2.88-17.6-8.64-23.43-5.76-5.83-13.45-8.75-23.08-8.75zm-285.5 57.09c-4.42 4.12-9.99 6.17-16.7 6.17-6.71 0-12.25-2.05-16.62-6.17-4.36-4.11-6.55-9.4-6.55-15.85 0-6.46 2.18-11.74 6.55-15.85 4.36-4.11 9.9-6.17 16.62-6.17 6.71 0 12.28 2.06 16.7 6.17 4.42 4.11 6.63 9.4 6.63 15.85-.01 6.45-2.22 11.74-6.63 15.85zm332.33-54.9h21.65v78.1H609.7z" class="st0"/></svg>