<svg version="1.1" id="Layer_1" xmlns:x="ns_extend;" xmlns:i="ns_ai;" xmlns:graph="ns_graphs;"
  xmlns="http://www.w3.org/2000/svg" xmlns:xlink="http://www.w3.org/1999/xlink" x="0px" y="0px"
  viewBox="0 0 170.3 170.3" style="enable-background:new 0 0 170.3 170.3;" xml:space="preserve">
  <style type="text/css">
    .st0 {
      fill: #231F20;
    }

    .st1 {
      fill: url(#SVGID_1_);
    }

    .st2 {
      fill: url(#SVGID_2_);
    }

    .st3 {
      fill: url(#SVGID_3_);
    }

    .st4 {
      fill: url(#SVGID_4_);
    }
  </style>
  <metadata>
    <sfw xmlns="ns_sfw;">
      <slices>
      </slices>
      <sliceSourceBounds bottomLeftOrigin="true" height="170.3" width="170.3" x="0" y="0.1">
      </sliceSourceBounds>
    </sfw>
  </metadata>

  <g>
    <g>
      <linearGradient id="SVGID_1_" gradientUnits="userSpaceOnUse" x1="120.6605" y1="-109.785" x2="-1.2624"
        y2="-118.3108" gradientTransform="matrix(1 0 0 -1 0 -48.7443)">
        <stop offset="0" style="stop-color:#4F2683">
        </stop>
        <stop offset="0.1185" style="stop-color:#4F2683">
        </stop>
        <stop offset="0.1209" style="stop-color:#4F2683">
        </stop>
        <stop offset="0.3094" style="stop-color:#684795">
        </stop>
        <stop offset="0.5492" style="stop-color:#836AA9">
        </stop>
        <stop offset="0.7459" style="stop-color:#947FB5">
        </stop>
        <stop offset="0.8736" style="stop-color:#9A87B9">
        </stop>
        <stop offset="1" style="stop-color:#8C76AF">
        </stop>
      </linearGradient>
      <path class="st1" d="M85.1,52.3c13.4,4.3,24,14.2,31.2,28.4c1,1.9,1.5,4.7,0.9,6.4c0.2-0.7,0.5-1.3,0.7-2
				c17.2-54-43.7-90.3-74.6-74c-0.6,0.3-1.2,0.6-1.8,1C1.8,35.7-11.6,86.8,11,126.9C-5.2,96,31,35.1,85.1,52.3z">
      </path>
      <linearGradient id="SVGID_2_" gradientUnits="userSpaceOnUse" x1="657.1577" y1="796.1262" x2="535.1799"
        y2="787.5966" gradientTransform="matrix(0 -1 -1 0 857.0851 706.7028)">
        <stop offset="0" style="stop-color:#4F2683">
        </stop>
        <stop offset="0.1185" style="stop-color:#4F2683">
        </stop>
        <stop offset="0.1209" style="stop-color:#4F2683">
        </stop>
        <stop offset="0.3094" style="stop-color:#684795">
        </stop>
        <stop offset="0.5492" style="stop-color:#836AA9">
        </stop>
        <stop offset="0.7459" style="stop-color:#947FB5">
        </stop>
        <stop offset="0.8736" style="stop-color:#9A87B9">
        </stop>
        <stop offset="1" style="stop-color:#8C76AF">
        </stop>
      </linearGradient>
      <path class="st2" d="M52.3,85.1c4.3-13.4,14.2-24,28.4-31.2c1.9-1,4.7-1.5,6.4-0.9c-0.7-0.2-1.3-0.5-2-0.7
				C31.1,35.1-5.2,96,11,126.9c0.3,0.6,0.6,1.2,1,1.8c23.7,39.8,74.7,53.2,114.8,30.5C96,175.4,35.1,139.1,52.3,85.1z">
      </path>
      <linearGradient id="SVGID_3_" gradientUnits="userSpaceOnUse" x1="1562.9875" y1="259.6239" x2="1441.0098"
        y2="251.0943" gradientTransform="matrix(-1 0 0 1 1612.5327 -150.3828)">
        <stop offset="0" style="stop-color:#4F2683">
        </stop>
        <stop offset="0.1185" style="stop-color:#4F2683">
        </stop>
        <stop offset="0.1209" style="stop-color:#4F2683">
        </stop>
        <stop offset="0.3094" style="stop-color:#684795">
        </stop>
        <stop offset="0.5492" style="stop-color:#836AA9">
        </stop>
        <stop offset="0.7459" style="stop-color:#947FB5">
        </stop>
        <stop offset="0.8736" style="stop-color:#9A87B9">
        </stop>
        <stop offset="1" style="stop-color:#8C76AF">
        </stop>
      </linearGradient>
      <path class="st3"
        d="M85.1,117.9c-13.4-4.3-24-14.2-31.2-28.4c-1-1.9-1.5-4.7-0.9-6.4c-0.2,0.7-0.5,1.3-0.7,2
				c-17.2,54,43.7,90.3,74.6,74.1c0.6-0.3,1.2-0.6,1.8-1c39.8-23.7,53.2-74.7,30.5-114.8C175.3,74.2,139.1,135.1,85.1,117.9z">
      </path>
      <linearGradient id="SVGID_4_" gradientUnits="userSpaceOnUse" x1="1026.4904" y1="-646.2879" x2="904.5057"
        y2="-654.8179" gradientTransform="matrix(0 1 1 0 755.4471 -905.8299)">
        <stop offset="0" style="stop-color:#4F2683">
        </stop>
        <stop offset="0.1185" style="stop-color:#4F2683">
        </stop>
        <stop offset="0.1209" style="stop-color:#4F2683">
        </stop>
        <stop offset="0.3094" style="stop-color:#684795">
        </stop>
        <stop offset="0.5492" style="stop-color:#836AA9">
        </stop>
        <stop offset="0.7459" style="stop-color:#947FB5">
        </stop>
        <stop offset="0.8736" style="stop-color:#9A87B9">
        </stop>
        <stop offset="1" style="stop-color:#8C76AF">
        </stop>
      </linearGradient>
      <path class="st4" d="M117.9,85.1c-4.3,13.4-14.2,24-28.4,31.2c-1.9,1-4.7,1.5-6.4,0.9c0.7,0.2,1.3,0.5,2,0.7
				c54,17.2,90.3-43.7,74-74.6c-0.3-0.6-0.6-1.2-1-1.8C134.4,1.7,83.4-11.7,43.3,11C74.2-5.2,135.1,31.1,117.9,85.1z">
      </path>
    </g>
  </g>
</svg>