<svg xmlns="http://www.w3.org/2000/svg" viewBox="0 0 320 132" width="320" height="132">
    <title>DELTAXY Logo</title>
    <path fill="#222" fill-rule="evenodd"
        d="M0.00,66.00L0.00,34.00L12.13,34.00C27.39,34.00 31.10,35.09 37.62,41.48C44.30,48.03 47.21,55.48 47.19,66.00C47.16,76.60 44.23,83.97 37.39,90.65C31.00,96.89 27.00,98.00 10.95,98.00L0.00,98.00L0.00,66.00ZM53.69,97.35C53.31,96.98 53.00,82.57 53.00,65.33L53.00,34.00L76.04,34.00L99.08,34.00L98.79,41.75L98.50,49.50L82.81,49.78C68.19,50.03 67.08,50.19 66.49,52.03C66.15,53.11 66.15,54.89 66.49,55.97C67.08,57.81 68.19,57.97 82.81,58.22L98.50,58.50L98.50,66.00L98.50,73.50L82.71,73.78C65.68,74.07 65.10,74.28 66.40,79.48L67.03,81.95L82.76,82.22L98.50,82.50L98.50,90.00L98.50,97.50L76.44,97.77C64.30,97.92 54.06,97.73 53.69,97.35ZM104.00,66.00L104.00,34.00L110.50,34.00L117.00,34.00L117.00,58.00L117.00,82.00L132.00,82.00L147.00,82.00L147.00,90.00L147.00,98.00L125.50,98.00L104.00,98.00L104.00,66.00ZM152.00,74.00L152.00,50.00L143.50,50.00L135.00,50.00L135.00,42.00L135.00,34.00L159.04,34.00L183.08,34.00L182.79,41.75L182.50,49.50L173.75,49.79L165.00,50.08L165.00,74.04L165.00,98.00L158.50,98.00L152.00,98.00L152.00,74.00ZM171.47,96.25C171.85,95.29 173.61,89.78 175.38,84.00C177.14,78.22 181.27,64.84 184.53,54.25L190.48,35.00L200.05,35.00L209.62,35.00L213.88,48.75C216.22,56.31 220.37,69.70 223.10,78.50C225.83,87.30 228.31,95.29 228.60,96.25C229.10,97.89 227.28,98.00 199.96,98.00C172.58,98.00 170.83,97.89 171.47,96.25ZM210.00,82.21C210.00,81.78 208.15,75.36 205.90,67.96C203.64,60.56 201.56,53.71 201.28,52.75C201.00,51.79 200.45,51.00 200.07,51.00C199.53,51.00 193.02,71.04 190.24,81.25C189.81,82.83 190.73,83.00 199.88,83.00C205.45,83.00 210.00,82.64 210.00,82.21ZM26.47,80.58C33.28,77.73 36.41,65.81 32.51,57.63C29.95,52.29 25.85,50.01 18.75,50.00L13.00,50.00L13.00,66.00L13.00,82.00L18.03,82.00C20.80,82.00 24.60,81.36 26.47,80.58Z" />
    <path fill="#374A34" fill-rule="evenodd"
        d="M236.00,85.95L236.00,73.90L241.25,74.20C244.69,74.40 246.47,74.93 246.40,75.75C246.34,76.44 246.23,81.72 246.15,87.50L246.00,98.00L241.00,98.00L236.00,98.00L236.00,85.95ZM264.00,85.95L264.00,73.90L269.25,74.20L274.50,74.50L274.79,84.00C275.21,97.58 275.04,98.00 268.98,98.00L264.00,98.00L264.00,85.95ZM282.00,92.03L282.00,86.06L295.25,85.78L308.50,85.50L308.50,80.00L308.50,74.50L294.75,74.22L281.00,73.94L281.00,54.47L281.00,35.00L285.97,35.00L290.94,35.00L291.22,48.25L291.50,61.50L300.22,61.79L308.94,62.08L309.22,48.79L309.50,35.50L314.75,35.20L320.00,34.90L320.00,66.45L320.00,98.00L301.00,98.00L282.00,98.00L282.00,92.03ZM247.46,69.63C247.11,67.78 246.98,65.19 247.16,63.88C247.48,61.62 247.92,61.49 255.75,61.21L264.00,60.92L264.00,66.35C264.00,72.74 263.62,73.00 254.46,73.00L248.09,73.00L247.46,69.63ZM236.00,47.00L236.00,35.00L241.00,35.00L246.00,35.00L246.00,47.00L246.00,59.00L241.00,59.00L236.00,59.00L236.00,47.00ZM264.22,47.30L264.50,35.50L269.22,35.20C274.99,34.82 275.21,35.37 274.79,49.00L274.50,58.50L269.22,58.80L263.94,59.11L264.22,47.30Z" />
</svg>